<svg width="180" height="180" viewBox="0 0 180 180" fill="none" xmlns="http://www.w3.org/2000/svg">
<rect width="180" height="180" rx="36" fill="#1E9E4F"/>
<path d="M90 50C67.9 50 50 67.9 50 90s17.9 40 40 40 40-17.9 40-40S112.1 50 90 50zm0 70c-16.5 0-30-13.5-30-30s13.5-30 30-30 30 13.5 30 30-13.5 30-30 30z" fill="white" opacity="0.9"/>
<path d="M90 65c-13.8 0-25 11.2-25 25s11.2 25 25 25 25-11.2 25-25-11.2-25-25-25zm0 40c-8.3 0-15-6.7-15-15s6.7-15 15-15 15 6.7 15 15-6.7 15-15 15z" fill="white" opacity="0.7"/>
</svg>
